<svg id="Layer_1" data-name="Layer 1" xmlns="http://www.w3.org/2000/svg" xmlns:xlink="http://www.w3.org/1999/xlink" viewBox="0 0 207.68 118.4"><defs><clipPath id="clip-path"><path d="M171.77,39.31c-3.27-6.08-2.34-12.17-2.34-13.1.47-7,7-12.64,15.45-13.11,6.08-.93,8.42-3.27,12.16-7-.46,13.11-.93,20.13-14.5,22.93C176.45,30.89,173.18,33.69,171.77,39.31Z" fill="none"/></clipPath><linearGradient id="linear-gradient" x1="5067.66" y1="628.81" x2="5067.66" y2="670.49" gradientTransform="translate(-4884.49 -678.65) scale(1 1.08)" gradientUnits="userSpaceOnUse"><stop offset="0" stop-color="#a9c725"/><stop offset="0.74" stop-color="#7eb636"/></linearGradient><clipPath id="clip-path-2"><path d="M146.27,66h-4.91C139,38.37,121.47,21.06,82.16,21v.11h0V21H65.54V66H58.46c-15.85.47-22.87-12.16-23.34-25.72V21H21.79V33.46C22.26,52.65,26,63.88,30.21,69,37.7,79.79,55.72,87.28,87.07,88.68h0V44h8.42c13.34,0,22,11.91,22,25.25V88.68C151.65,86.81,167.8,78.39,174.82,69c6.55-8.9,8.89-16.85,8.89-35.57v-3h-.47c-4.91,1.87-9.42,4.67-11.47,12.17.47,15-11.46,22.93-25.5,23.39" fill="none"/></clipPath><linearGradient id="linear-gradient-2" x1="103.45" y1="16.38" x2="103.45" y2="94.06" gradientUnits="userSpaceOnUse"><stop offset="0" stop-color="#1a98d5"/><stop offset="0.29" stop-color="#1a98d5"/><stop offset="0.82" stop-color="#0b8597"/><stop offset="0.99" stop-color="#0b8597"/></linearGradient><clipPath id="clip-path-3"><path d="M22.26,21.29V33.46c.46,19.19,4.21,30.42,8.42,35.57,7.49,10.76,25.5,17.31,56.39,19.65h0l-21.53-.23h-1.4c-38.37-.47-51-20.13-53.35-48.67L10.64,21H22.26" fill="none"/></clipPath><linearGradient id="linear-gradient-3" x1="104.15" y1="14.04" x2="104.15" y2="99.68" gradientUnits="userSpaceOnUse"><stop offset="0" stop-color="#32acd8"/><stop offset="0.47" stop-color="#32acd8"/><stop offset="0.81" stop-color="#1a91a6"/><stop offset="0.99" stop-color="#1a91a6"/></linearGradient><clipPath id="clip-path-4"><path d="M117.49,88.68c33.69-2.81,49.84-10.29,56.86-19.65,6.55-8.9,8.89-16.85,8.89-35.57v-3h0c6.08-1.41,9.36-2.34,12.87-8.43v.47l-.47,23.4h0c-3.15,23.63-16.85,39.31-51.48,42.69l-26.44.13" fill="none"/></clipPath><linearGradient id="linear-gradient-4" x1="104.39" y1="14.51" x2="104.39" y2="100.15" xlink:href="#linear-gradient-3"/><clipPath id="clip-path-5"><path d="M18,104.83A5,5,0,0,0,23.13,109a5,5,0,0,0,5.13-4.21v-.24h3.28v.24a8.22,8.22,0,0,1-8.42,7.48,8.21,8.21,0,0,1-8.41-7.48l0-.24H18" fill="#fff"/></clipPath><clipPath id="clip-path-6"><path d="M35.77,102.49a5,5,0,0,1,5.14-4.21,5,5,0,0,1,5.14,4.21v.23h3.27v-.23A8.22,8.22,0,0,0,40.91,95a8.22,8.22,0,0,0-8.42,7.49v.23h3.27" fill="#fff"/></clipPath></defs><title>Artboard 16</title><g clip-path="url(#clip-path)"><rect x="170.12" y="-1.82" width="26" height="44.86" transform="translate(298.04 164.67) rotate(-135)" fill="url(#linear-gradient)"/></g><path d="M183.59,20.69c-2.21.81-7.09,2.85-9.38,6.28-1.38,2.15-1.88,4.32-2.44,8.24-.26-5.7.72-9.17,2.54-11.3,2.7-2.54,3.59-2.95,8.9-5,6.18-2,9.75-4.08,12.54-9.68C192.89,17,189.34,18.68,183.59,20.69Z" fill="#fff"/><g clip-path="url(#clip-path-2)"><rect x="15.47" y="16.38" width="175.96" height="77.68" stroke="#88cff3" stroke-miterlimit="10" stroke-width="0.36" fill="url(#linear-gradient-2)"/></g><g clip-path="url(#clip-path-3)"><rect x="0.49" y="14.04" width="207.31" height="85.64" fill="url(#linear-gradient-3)"/></g><g clip-path="url(#clip-path-4)"><rect x="0.73" y="14.51" width="207.31" height="85.64" fill="url(#linear-gradient-4)"/></g><rect x="14.69" y="95" width="3.28" height="9.83" fill="#fff"/><rect x="28.26" y="95" width="3.28" height="9.83" fill="#fff"/><path d="M18,104.83A5,5,0,0,0,23.13,109a5,5,0,0,0,5.13-4.21v-.24h3.28v.24a8.22,8.22,0,0,1-8.42,7.48,8.21,8.21,0,0,1-8.41-7.48l0-.24H18" fill="#fff"/><g clip-path="url(#clip-path-5)"><rect x="13.52" y="103.66" width="20.12" height="10.3" fill="#fff"/></g><rect x="32.48" y="102.49" width="3.28" height="9.83" fill="#fff"/><rect x="46.05" y="102.49" width="3.28" height="9.83" fill="#fff"/><path d="M35.77,102.49a5,5,0,0,1,5.14-4.21,5,5,0,0,1,5.14,4.21v.23h3.27v-.23A8.22,8.22,0,0,0,40.91,95a8.22,8.22,0,0,0-8.42,7.49v.23h3.27" fill="#fff"/><g clip-path="url(#clip-path-6)"><rect x="31.31" y="93.36" width="20.12" height="10.3" fill="#fff"/></g><rect x="50.26" y="95" width="3.28" height="17.32" fill="#fff"/><rect x="50.26" y="90.32" width="3.28" height="3.28" rx="1.26" fill="#fff"/><path d="M63.13,112.31a8.66,8.66,0,1,1,7.05-13.68l-2.67,1.9a5.39,5.39,0,1,0,0,6.25l2.67,1.9A8.69,8.69,0,0,1,63.13,112.31Z" fill="#fff"/><path d="M168.42,112.31a8.66,8.66,0,1,1,7.05-13.68l-2.66,1.9a5.39,5.39,0,1,0,0,6.25l2.67,1.9A8.7,8.7,0,0,1,168.42,112.31Z" fill="#fff"/><path d="M78.1,112.31a8.66,8.66,0,1,1,8.66-8.65A8.66,8.66,0,0,1,78.1,112.31Zm0-14a5.38,5.38,0,1,0,5.39,5.38A5.39,5.39,0,0,0,78.1,98.28Z" fill="#fff"/><path d="M100.8,101.78H97.52a3.51,3.51,0,0,0-7,0H87.23a6.79,6.79,0,0,1,13.57,0Z" fill="#fff"/><path d="M111.1,101.78h-3.28a3.51,3.51,0,0,0-7,0H97.52a6.79,6.79,0,0,1,13.58,0Z" fill="#fff"/><path d="M121.39,101.78h-3.27a3.51,3.51,0,0,0-7,0h-3.28a6.79,6.79,0,0,1,13.57,0Z" fill="#fff"/><path d="M131.69,101.78h-3.28a3.51,3.51,0,0,0-7,0h-3.27a6.79,6.79,0,0,1,13.57,0Z" fill="#fff"/><rect x="87.23" y="101.55" width="3.28" height="10.76" fill="#fff"/><rect x="97.52" y="101.55" width="3.28" height="10.76" fill="#fff"/><rect x="107.82" y="101.55" width="3.28" height="10.76" fill="#fff"/><rect x="118.12" y="101.55" width="3.28" height="10.76" fill="#fff"/><rect x="128.41" y="101.55" width="3.28" height="10.76" fill="#fff"/><path d="M140.81,112.31a8.66,8.66,0,1,1,8.66-8.65h-3.28a5.38,5.38,0,1,0-1.57,3.8l2.31,2.32A8.59,8.59,0,0,1,140.81,112.31Z" fill="#fff"/><polygon points="149.47 105.3 149.47 102.95 148.51 102.02 135.04 102.02 135.04 105.3 149.47 105.3" fill="#fff"/><path d="M153.68,103.66h-3.27A8.66,8.66,0,0,1,159.06,95a9.27,9.27,0,0,1,1.75.17l-.66,3.21a5.67,5.67,0,0,0-1.09-.1A5.39,5.39,0,0,0,153.68,103.66Z" fill="#fff"/><rect x="150.41" y="103.42" width="3.28" height="8.89" fill="#fff"/><path d="M183.4,112.31a8.66,8.66,0,1,1,8.66-8.65h-3.28A5.38,5.38,0,1,0,183.4,109a5.31,5.31,0,0,0,3.8-1.58l2.32,2.32A8.61,8.61,0,0,1,183.4,112.31Z" fill="#fff"/><polygon points="192.06 105.3 192.06 102.95 191.09 102.02 177.62 102.02 177.62 105.3 192.06 105.3" fill="#fff"/></svg>