<svg id="Layer_1" data-name="Layer 1" xmlns="http://www.w3.org/2000/svg" xmlns:xlink="http://www.w3.org/1999/xlink" viewBox="0 0 227.77 114.39"><defs><clipPath id="clip-path"><path d="M168.27,41.27a18.7,18.7,0,0,1-1.88-10.49c.38-5.62,5.62-10.11,12.37-10.49,4.87-.75,6.74-2.62,9.74-5.62-.38,10.49-.75,16.11-11.62,18.36C172,34.53,169.39,36.78,168.27,41.27Z" fill="none"/></clipPath><linearGradient id="linear-gradient" x1="3228.22" y1="388.91" x2="3228.22" y2="422.28" gradientTransform="translate(-3050.84 -410.26) scale(1 1.08)" gradientUnits="userSpaceOnUse"><stop offset="0" stop-color="#a9c725"/><stop offset="0.74" stop-color="#7eb636"/></linearGradient><clipPath id="clip-path-2"><path d="M147.85,62.62h-3.93c-1.88-22.1-15.93-36-47.39-36v.09h0v-.09H83.23V62.62H77.55C64.87,63,59.25,52.88,58.88,42V26.57H48.2v10c.37,15.36,3.37,24.35,6.74,28.47,6,8.62,20.42,14.61,45.52,15.73h0V45h6.74c10.68,0,17.61,9.53,17.61,20.21V80.79c27.35-1.49,40.27-8.24,45.89-15.73,5.25-7.12,7.12-13.49,7.12-28.47V34.15h-.38c-3.93,1.5-7.54,3.74-9.17,9.74.37,12-9.18,18.36-20.42,18.73" fill="none"/></clipPath><linearGradient id="linear-gradient-2" x1="113.57" y1="22.91" x2="113.57" y2="85.1" gradientUnits="userSpaceOnUse"><stop offset="0" stop-color="#1a98d5"/><stop offset="0.29" stop-color="#1a98d5"/><stop offset="0.82" stop-color="#0b8597"/><stop offset="0.99" stop-color="#0b8597"/></linearGradient><clipPath id="clip-path-3"><path d="M48.57,26.85v9.74C49,52,52,60.94,55.32,65.06c6,8.62,20.41,13.86,45.14,15.73h0l-17.23-.18H82.1c-30.72-.38-40.83-16.11-42.7-39l-.12-15.08h9.29" fill="none"/></clipPath><linearGradient id="linear-gradient-3" x1="114.13" y1="21.04" x2="114.13" y2="89.6" gradientUnits="userSpaceOnUse"><stop offset="0" stop-color="#32acd8"/><stop offset="0.47" stop-color="#32acd8"/><stop offset="0.81" stop-color="#1a91a6"/><stop offset="0.99" stop-color="#1a91a6"/></linearGradient><clipPath id="clip-path-4"><path d="M124.81,80.79c27-2.24,39.9-8.24,45.52-15.73,5.24-7.12,7.11-13.49,7.11-28.47V34.15h0c4.87-1.12,7.5-1.87,10.31-6.74v.38l-.38,18.73h0C184.85,65.43,173.89,78,146.16,80.69l-21.16.1" fill="none"/></clipPath><linearGradient id="linear-gradient-4" x1="114.32" y1="21.42" x2="114.32" y2="89.97" xlink:href="#linear-gradient-3"/><clipPath id="clip-path-5"><path d="M45.16,93.72a4.19,4.19,0,0,0,8.22,0v-.19H56v.19a6.79,6.79,0,0,1-13.48,0v-.19h2.62" fill="#5c5c5e"/></clipPath><clipPath id="clip-path-6"><path d="M59.39,91.85a4.19,4.19,0,0,1,8.23,0V92h2.62v-.18a6.78,6.78,0,0,0-13.47,0V92h2.62" fill="#5c5c5e"/></clipPath></defs><title>Brand Guide</title><g clip-path="url(#clip-path)"><rect x="166.94" y="8.34" width="20.82" height="35.91" transform="translate(284.16 170.31) rotate(-135)" fill="url(#linear-gradient)"/></g><path d="M177.73,26.37c-1.77.65-5.68,2.28-7.51,5-1.1,1.72-1.51,3.46-1.95,6.6-.21-4.56.57-7.34,2-9,2.17-2,2.88-2.36,7.13-4,5-1.6,7.8-3.27,10-7.75C185.17,23.44,182.33,24.76,177.73,26.37Z" fill="#fff"/><g clip-path="url(#clip-path-2)"><rect x="43.14" y="22.91" width="140.86" height="62.19" stroke="#88cff3" stroke-miterlimit="10" stroke-width="0.36" fill="url(#linear-gradient-2)"/></g><g clip-path="url(#clip-path-3)"><rect x="31.15" y="21.04" width="165.96" height="68.56" fill="url(#linear-gradient-3)"/></g><g clip-path="url(#clip-path-4)"><rect x="31.34" y="21.42" width="165.96" height="68.56" fill="url(#linear-gradient-4)"/></g><rect x="42.52" y="85.85" width="2.62" height="7.87" fill="#5c5c5e"/><rect x="53.38" y="85.85" width="2.62" height="7.87" fill="#5c5c5e"/><path d="M45.16,93.72a4.19,4.19,0,0,0,8.22,0v-.19H56v.19a6.79,6.79,0,0,1-13.48,0v-.19h2.62" fill="#5c5c5e"/><g clip-path="url(#clip-path-5)"><rect x="41.58" y="92.78" width="16.11" height="8.24" fill="#5c5c5e"/></g><rect x="56.76" y="91.85" width="2.62" height="7.87" fill="#5c5c5e"/><rect x="67.62" y="91.85" width="2.62" height="7.87" fill="#5c5c5e"/><path d="M59.39,91.85a4.19,4.19,0,0,1,8.23,0V92h2.62v-.18a6.78,6.78,0,0,0-13.47,0V92h2.62" fill="#5c5c5e"/><g clip-path="url(#clip-path-6)"><rect x="55.82" y="84.54" width="16.11" height="8.24" fill="#5c5c5e"/></g><rect x="70.99" y="85.85" width="2.62" height="13.86" fill="#5c5c5e"/><rect x="70.99" y="82.11" width="2.62" height="2.62" rx="1.26" fill="#5c5c5e"/><path d="M81.29,99.71a6.93,6.93,0,1,1,5.65-10.95L84.8,90.28a4.31,4.31,0,1,0,0,5l2.14,1.52A7,7,0,0,1,81.29,99.71Z" fill="#5c5c5e"/><path d="M165.58,99.71a6.93,6.93,0,1,1,5.65-10.95l-2.14,1.52a4.3,4.3,0,1,0,0,5l2.13,1.52A7,7,0,0,1,165.58,99.71Z" fill="#5c5c5e"/><path d="M93.28,99.71a6.93,6.93,0,1,1,6.93-6.93A6.94,6.94,0,0,1,93.28,99.71Zm0-11.24a4.31,4.31,0,1,0,4.31,4.31A4.32,4.32,0,0,0,93.28,88.47Z" fill="#5c5c5e"/><path d="M111.45,91.28h-2.62a2.81,2.81,0,0,0-5.62,0h-2.62a5.43,5.43,0,1,1,10.86,0Z" fill="#5c5c5e"/><path d="M119.69,91.28h-2.62a2.81,2.81,0,1,0-5.62,0h-2.62a5.43,5.43,0,1,1,10.86,0Z" fill="#5c5c5e"/><path d="M127.93,91.28h-2.62a2.81,2.81,0,0,0-5.62,0h-2.62a5.43,5.43,0,0,1,10.86,0Z" fill="#5c5c5e"/><path d="M136.18,91.28h-2.63a2.81,2.81,0,0,0-5.62,0h-2.62a5.44,5.44,0,0,1,10.87,0Z" fill="#5c5c5e"/><rect x="100.59" y="91.1" width="2.62" height="8.62" fill="#5c5c5e"/><rect x="108.83" y="91.1" width="2.62" height="8.62" fill="#5c5c5e"/><rect x="117.07" y="91.1" width="2.62" height="8.62" fill="#5c5c5e"/><rect x="125.31" y="91.1" width="2.62" height="8.62" fill="#5c5c5e"/><rect x="133.55" y="91.1" width="2.62" height="8.62" fill="#5c5c5e"/><path d="M143.48,99.71a6.93,6.93,0,1,1,6.93-6.93h-2.62a4.3,4.3,0,1,0-1.26,3l1.85,1.85A6.88,6.88,0,0,1,143.48,99.71Z" fill="#5c5c5e"/><polygon points="150.41 94.09 150.41 92.22 149.64 91.47 138.86 91.47 138.86 94.09 150.41 94.09" fill="#5c5c5e"/><path d="M153.78,92.78h-2.62a6.94,6.94,0,0,1,6.93-6.93,7.3,7.3,0,0,1,1.4.14L159,88.56a4.21,4.21,0,0,0-.87-.09A4.32,4.32,0,0,0,153.78,92.78Z" fill="#5c5c5e"/><rect x="151.16" y="92.59" width="2.62" height="7.12" fill="#5c5c5e"/><path d="M177.57,99.71a6.93,6.93,0,1,1,6.93-6.93h-2.62a4.3,4.3,0,1,0-1.26,3l1.85,1.85A6.88,6.88,0,0,1,177.57,99.71Z" fill="#5c5c5e"/><polygon points="184.5 94.09 184.5 92.22 183.73 91.47 172.95 91.47 172.95 94.09 184.5 94.09" fill="#5c5c5e"/></svg>