<?xml version="1.0" encoding="UTF-8"?>
<svg width="604px" height="396px" viewBox="0 0 604 396" version="1.1" xmlns="http://www.w3.org/2000/svg" xmlns:xlink="http://www.w3.org/1999/xlink">
    <title>Graphic@2x</title>
    <g id="Graphic" stroke="none" stroke-width="1" fill="none" fill-rule="evenodd">
        <g id="Group-5-Copy" fill-rule="nonzero">
            <ellipse id="Oval-Copy-3" fill="#DCDCDC" cx="76.5" cy="331.5" rx="76.5" ry="4.5"></ellipse>
            <g id="Group-3" transform="translate(11.000000, 94.000000)">
                <path d="M139,118.58599 C139,170.776887 107.883793,189 69.5,189 C31.1162072,189 0,170.776887 0,118.58599 C0,66.3950926 69.5,0 69.5,0 C69.5,0 139,66.3950926 139,118.58599 Z" id="Path" fill="#F2F2F2"></path>
                <polygon id="Path" fill="#3F3D56" points="67.8051302 181.322048 68.5134735 137.568819 98 83.4402778 68.6245862 130.705504 68.9432182 111.032086 89.2645828 71.8713442 69.0273697 105.826394 69.0273697 105.826394 69.6000902 70.443263 91.3610176 39.2656755 69.6899607 64.8793208 70.0478089 0 67.7985942 85.8890027 67.9832373 82.3458528 45.8587427 48.3645697 67.6286572 89.147684 65.5673536 128.664217 65.5060782 127.61488 40 91.8546439 65.4284628 131.320349 65.1711062 136.262068 65.1245369 136.336669 65.145779 136.742467 59.9153132 237 66.9031567 237 67.7414038 185.21525 93.1085912 145.84546"></polygon>
            </g>
            <ellipse id="Oval" fill="#DCDCDC" cx="502" cy="390" rx="102" ry="6"></ellipse>
            <g id="Group-4" transform="translate(125.000000, 45.000000)">
                <rect id="e1abf0e4-070b-4c82-8a12-ebedd4e3db02" fill="#E6E6E6" x="0.130148758" y="0.172614796" width="303.732261" height="194.804498"></rect>
                <rect id="ace8bea0-82e8-49b8-a50c-1e1cb532084f" fill="#FFFFFF" x="9.80847059" y="24.6058163" width="286.362039" height="158.846398"></rect>
                <rect id="b540f353-e277-4512-bc56-a133cea2858b" fill="#199EDA" x="0" y="2.20911724e-14" width="303.732261" height="12.9222321"></rect>
                <ellipse id="b2b285b5-c1c3-4b12-9710-2898c7239781" fill="#FFFFFF" cx="9.58941673" cy="6.6066199" rx="2.39176471" ry="2.39521684"></ellipse>
                <ellipse id="a5a428bb-42a2-4f57-9e6c-9979c01a2490" fill="#FFFFFF" cx="18.6671945" cy="6.6066199" rx="2.39176471" ry="2.39521684"></ellipse>
                <ellipse id="a9929a25-14ce-4464-bac9-4165f1e3fae6" fill="#FFFFFF" cx="27.7449723" cy="6.6066199" rx="2.39176471" ry="2.39521684"></ellipse>
                <polygon id="b4a2d72b-abc3-4d2f-a2b8-a2aff6897b26" fill="#199EDA" points="59.9083759 46.8701353 40.9664936 65.6025716 59.9083759 84.3345103 64.1703367 80.0663981 49.8470688 65.720467 64.2900492 51.2566404"></polygon>
                <polygon id="b5120d89-6cbe-4bfa-9a1b-cf9b07deff91" fill="#199EDA" points="75.4287681 46.8701353 94.3701537 65.6025716 75.4287681 84.3345103 71.1668073 80.0663981 85.4910688 65.7209644 71.0470949 51.2566404"></polygon>
                <path d="M136.697673,51.5710282 C135.148366,51.5710282 133.892627,52.4634517 133.892627,53.5638088 C133.892627,54.6641659 135.148366,55.5565894 136.697673,55.5565894 L268.934693,55.5565894 C270.484,55.5565894 271.739739,54.6641659 271.739739,53.5638088 C271.739739,52.4634517 270.484,51.5710282 268.934693,51.5710282 L136.697673,51.5710282 Z" id="a31271bd-8e2f-469b-8cee-8b6db3f92f99" fill="#E6E6E6"></path>
                <path d="M267.619858,160.750633 L45.1643809,160.750633 C42.8903417,160.750633 41.0474659,159.435875 41.0449822,157.815684 L41.0449822,118.496322 C41.0474659,116.87613 42.8903417,115.561373 45.1643809,115.561373 L267.619858,115.561373 C269.893897,115.561373 271.736773,116.87613 271.739257,118.496322 L271.739257,157.815186 C271.739257,159.435388 269.893897,160.748648 267.619858,160.750633 Z M45.1643809,116.734357 C43.799858,116.734357 42.6926424,117.523311 42.6926424,118.495327 L42.6926424,157.814191 C42.6926424,158.786207 43.799858,159.574166 45.1643809,159.575161 L267.619858,159.575161 C268.984381,159.575161 270.091597,158.786207 270.091597,157.814191 L270.091597,118.496322 C270.091597,117.524306 268.984381,116.736347 267.619858,116.735352 L45.1643809,116.734357 Z" id="bf577952-0fd5-43e0-be6b-ea1966b51a93" fill="#E6E6E6"></path>
                <ellipse id="f7f4957b-eaa8-456b-bf02-bacf7de3ef80" fill="#E6E6E6" cx="68.0721618" cy="138.139094" rx="9.95252288" ry="9.96688776"></ellipse>
                <path d="M96.1424986,130.167965 C95.0435025,130.166543 94.1514372,131.057586 94.150013,132.158168 C94.1485923,133.258751 95.0383514,134.152104 96.1373475,134.153528 L189.955786,134.153528 C191.054782,134.153528 191.945694,133.26133 191.945694,132.160748 C191.945694,131.060165 191.054782,130.167965 189.955786,130.167965 L96.1424986,130.167965 Z" id="fb0f055d-da6e-47f2-bb6d-7ff26d7b746a" fill="#199EDA"></path>
                <path d="M96.1424986,142.125156 C95.0435024,142.123734 94.1514369,143.014777 94.1500128,144.115359 C94.1485921,145.215942 95.0383513,146.109295 96.1373475,146.110721 L136.509918,146.110721 C137.608915,146.112145 138.500981,145.221103 138.502407,144.12052 C138.503829,143.019938 137.614071,142.126584 136.515075,142.125156 L96.1424986,142.125156 L96.1424986,142.125156 Z" id="bfcde504-8c45-4d21-843b-87b1f7e22ce0" fill="#199EDA"></path>
                <path d="M135.732041,63.5098037 C134.695058,63.5935338 133.896116,64.4607342 133.896116,65.5025843 C133.896116,66.5444344 134.695058,67.4116349 135.732041,67.4953649 L222.396878,67.4953649 C223.433861,67.4116349 224.232802,66.5444344 224.232802,65.5025843 C224.232802,64.4607342 223.433861,63.5935338 222.396878,63.5098037 L135.732041,63.5098037 Z" id="a66699ea-75f1-4575-b6d5-52b0b1f8e30c" fill="#E6E6E6"></path>
                <path d="M136.302265,75.4485792 C134.971519,75.4485792 133.892618,76.3410027 133.892618,77.4413598 C133.892618,78.541717 134.971519,79.4341404 136.302265,79.4341404 L249.904879,79.4341404 C251.235624,79.4341404 252.314526,78.541717 252.314526,77.4413598 C252.314526,76.3410027 251.235624,75.4485792 249.904879,75.4485792 L136.302265,75.4485792 Z" id="bbc4ca7b-25d4-4c7e-b3d4-0411f69bd48f" fill="#E6E6E6"></path>
            </g>
            <g id="Group-6" transform="translate(153.000000, 295.000000)" fill="#C0C0C0">
                <rect id="Rectangle" x="6.85714286" y="0" width="2.28571429" height="15"></rect>
                <polygon id="Rectangle" transform="translate(8.000000, 7.500000) rotate(90.000000) translate(-8.000000, -7.500000) " points="6.84615385 0.0714285714 9.15384615 0.0714285714 9.15384615 14.9285714 6.84615385 14.9285714"></polygon>
            </g>
            <path d="M490.064647,69.5791832 C488.664993,68.9695039 487.945417,67.4054883 488.392453,65.9446334 C488.426685,65.8354811 488.447824,65.7226406 488.455423,65.6084901 L488.455423,65.6084901 C488.500973,64.9419125 488.102191,64.3250184 487.476042,64.0934403 C486.849893,63.8618622 486.146162,64.0709978 485.747728,64.6070631 L485.747728,64.6070631 C485.680409,64.6981639 485.624048,64.7968862 485.579809,64.9011885 C484.970684,66.3021143 483.408089,67.022345 481.94856,66.5749022 C481.839507,66.5406389 481.726769,66.5194813 481.612722,66.5118753 L481.612722,66.5118753 C480.941369,66.4633573 480.319528,66.8671379 480.090153,67.5005263 C479.860779,68.1339148 480.079708,68.8427245 480.626198,69.2360369 L480.626198,69.2360369 C480.717216,69.3034176 480.815849,69.3598303 480.920056,69.4041086 C482.31971,70.0137879 483.039287,71.5778035 482.59225,73.0386584 C482.558018,73.1478107 482.53688,73.2606512 482.52928,73.3748017 L482.52928,73.3748017 C482.475526,74.0509324 482.88008,74.6795691 483.517362,74.9101802 C484.154643,75.1407913 484.867305,74.9164387 485.257965,74.3622228 L485.257965,74.3622228 C485.325284,74.2711219 485.381646,74.1723996 485.425884,74.0680974 C486.035009,72.6671715 487.597604,71.9469408 489.057133,72.3943837 C489.166186,72.4286469 489.278924,72.4498045 489.392971,72.4574105 L489.392971,72.4574105 C490.058943,72.5030019 490.675277,72.1038574 490.906645,71.4771391 C491.138012,70.8504209 490.929067,70.146051 490.393488,69.7472549 L490.393488,69.7472549 C490.291527,69.6773514 490.181007,69.6208641 490.064647,69.5791832 L490.064647,69.5791832 Z" id="Path" fill="#C0C0C0"></path>
            <circle id="Oval" fill="#C0C0C0" cx="39.5" cy="82.5" r="2.5"></circle>
            <circle id="Oval-Copy" fill="#C0C0C0" cx="338.5" cy="285.5" r="4.5"></circle>
            <circle id="Oval-Copy-2" fill="#C0C0C0" cx="254" cy="4" r="4"></circle>
            <path d="M450.341212,103.216278 C425.402262,82.2038115 388.257306,84.7718128 366.456485,109.015614 C344.655665,133.259415 346.084019,170.410387 369.682148,192.913925 C393.280277,215.417464 430.513082,215.134368 453.765264,192.274607 L527.84502,254.689481 C529.364568,255.970133 531.45297,256.343948 533.323413,255.67009 C535.193856,254.996232 536.562117,253.377096 536.912698,251.422698 C537.263279,249.4683 536.542908,247.475621 535.022988,246.19541 L460.943231,183.780532 C478.777942,158.222091 474.183159,123.306545 450.341212,103.216278 L450.341212,103.216278 Z M446.273708,177.018519 C434.405989,190.928544 415.234468,196.398578 397.698796,190.877951 C380.163125,185.357324 367.716655,169.933231 366.163157,151.797902 C364.609659,133.662574 374.255068,116.387454 390.601744,108.027906 C406.94842,99.6683576 426.777163,101.870652 440.841861,113.607861 C460.046907,129.634765 462.478827,158.024682 446.273708,177.018519 L446.273708,177.018519 Z" id="Shape" fill="#CACACA"></path>
            <g id="Group-4" transform="translate(440.000000, 121.000000)">
                <polygon id="a9e5a31c-10e6-4175-9779-4994367672f7" fill="#D6BFA6" points="38.3674722 255.229225 37.6421267 264.903775 22.8909585 260.066748 28.935504 252.811207"></polygon>
                <polygon id="f499a4aa-6a35-40fc-8432-e4c7ab26d048" fill="#D6BFA6" points="92.0544461 252.085306 91.3276143 261.517063 83.1055461 262.726568 78.2689189 258.131342 83.8308916 249.182694"></polygon>
                <path d="M98.0999874,131.643725 C98.0999874,131.643725 104.629583,139.382869 96.4070193,151.233635 C88.1844556,163.084401 78.2699147,174.693365 78.2699147,174.693365 L59.8885511,209.519761 C59.8885511,209.519761 50.4570784,243.620752 48.2805465,244.587959 C46.1040147,245.555166 44.8951056,241.685842 46.1040147,245.796968 C47.3129238,249.908094 46.5875784,249.666788 45.6204511,249.909581 C44.6533238,250.152374 41.9932284,249.667779 42.9603556,251.360887 C43.9274829,253.053995 44.6533238,253.053995 42.7185738,253.053995 C40.7838238,253.053995 40.0584784,251.844986 40.0584784,253.537599 C40.0584784,255.230211 38.3655102,259.100031 38.3655102,259.100031 C38.3655102,259.100031 26.5157238,255.71431 26.0321602,254.263004 C25.5485965,252.811698 29.1758193,252.086292 28.4504738,250.635482 C27.7251284,249.184671 27.4833465,249.184175 27.4833465,247.007959 C27.4833465,244.831743 28.9345329,244.347644 28.9345329,244.347644 C28.9345329,244.347644 30.143442,243.86404 29.6598784,242.896337 C29.1763147,241.928635 27.2415647,242.412734 29.6598784,241.203229 C32.078192,239.993725 41.9942193,202.990121 41.9942193,202.990121 C41.9942193,202.990121 41.9942193,184.607238 45.1378784,178.562193 C48.2815374,172.517148 45.8632238,129.466518 53.3624238,128.982914 C60.8616238,128.49931 98.0999874,131.643725 98.0999874,131.643725 Z" id="fb70bf31-eafd-4d8a-8310-5130d8d104e1" fill="#2F2E41"></path>
                <path d="M95.681649,145.428905 L94.2304627,182.915617 C94.2304627,182.915617 101.485404,219.193319 99.0670899,230.318184 C96.6487763,241.443049 98.3417445,239.992238 96.8905581,241.927148 C95.4393718,243.862058 94.2304627,242.894356 95.4393718,244.587464 C96.6482809,246.280572 97.3716445,246.764175 95.4393718,248.700076 C93.507099,250.635977 92.5374945,255.230211 92.5374945,255.230211 L80.2041445,254.021202 C80.2041445,254.021202 83.3478036,248.45877 82.1364172,247.249265 C80.9250309,246.039761 77.7833536,247.974671 80.2041445,245.316833 C82.6249354,242.658995 84.0736445,243.865527 82.6224581,242.656518 C81.1712718,241.447509 78.9952354,241.931112 80.9294899,239.996202 C82.8637445,238.061292 85.0417627,238.06377 83.1060218,237.335887 C81.1702809,236.608004 78.993749,237.335887 79.9623627,235.884581 C80.9309763,234.433274 82.1388945,232.740662 82.1388945,232.740662 L79.2370172,210.732238 C79.2370172,210.732238 75.8515763,203.476698 76.8187036,200.332779 C77.7858309,197.18886 72.7064309,171.310617 72.7064309,171.310617 L95.681649,145.428905 Z" id="a89455c2-275d-4b70-b13c-192fbe474176" fill="#2F2E41"></path>
                <path d="M90.3624689,256.921838 C90.3624689,256.921838 92.7807825,254.503324 93.5061279,255.954631 C94.2314734,257.405937 99.5506734,270.465712 96.4080052,271.432919 C93.265337,272.400126 88.6695007,273.365351 86.251187,272.641928 C83.8328734,271.918505 78.7544643,268.529315 72.7089279,268.529315 C66.6633916,268.529315 61.5849825,265.869 61.5849825,264.901793 C61.5849825,263.934586 60.6178552,258.129856 65.2122052,258.129856 C69.8065552,258.129856 78.2709007,252.809225 78.2709007,252.809225 C78.2709007,252.809225 80.2031734,248.939406 81.1727779,249.181703 C82.1423825,249.424 81.4145598,257.162649 81.4145598,257.162649 C81.4145598,257.162649 86.9755416,262.484275 90.3624689,256.921838 Z" id="a3024be5-ad86-493a-9bfb-258ab58160a1" fill="#2F2E41"></path>
                <path d="M36.6750094,260.065762 C36.6750094,260.065762 38.8515412,254.745131 41.028073,255.953149 C43.2046048,257.161167 41.7534184,272.155852 41.7534184,272.155852 C41.7534184,272.155852 39.8211457,275.299771 34.2566957,274.574365 C28.6922457,273.84896 13.9430594,272.155852 10.557123,272.881257 C7.17118663,273.606663 -2.01800883,269.495537 0.400304808,263.932609 C0.400304808,263.932609 1.6092139,260.78869 7.4134639,261.030492 C13.2177139,261.272293 23.8580957,254.258555 23.8580957,254.258555 C23.8580957,254.258555 25.5510639,249.421528 26.0346275,249.905131 C26.5181912,250.388735 27.0017548,258.85378 27.0017548,258.85378 C27.0017548,258.85378 33.2895635,262.967879 36.6750094,260.065762 Z" id="a57c92ce-496a-44de-934b-3ddd78679762" fill="#2F2E41"></path>
                <ellipse id="fa315d33-3eeb-4d45-ab88-aeb0e9694c5a" fill="#D6BFA6" cx="68.3548734" cy="23.0529141" rx="14.0263182" ry="14.0274775"></ellipse>
                <path d="M79.2370469,24.0201213 C79.2370469,24.0201213 86.7337697,39.014806 89.3938651,40.4661123 C92.0539606,41.9174186 71.2567606,50.8660672 71.2567606,50.8660672 C71.2567606,50.8660672 67.8713197,36.1131843 63.7600379,32.9692654 C59.648756,29.8253465 79.2370469,24.0201213 79.2370469,24.0201213 Z" id="fbae87ba-2986-46ef-9932-134b7e0cae24" fill="#D6BFA6"></path>
                <path d="M57.7144767,146.637914 L56.7473494,155.828365 C56.7473494,155.828365 46.3487494,152.200842 49.7341904,145.428905 L57.7144767,146.637914 Z" id="fc15680c-e415-4000-ac02-b1f296562473" fill="#D6BFA6"></path>
                <path d="M53.6046862,132.852739 C60.8596271,140.589901 99.3088817,134.059766 99.3088817,134.059766 L98.8272999,128.497829 L103.663927,123.422469 L102.213732,99.7194506 C102.213732,99.7194506 106.563823,88.5955767 107.288673,71.6659821 C107.332614,70.6254 107.26986,69.5830531 107.101391,68.5552614 C104.608263,53.3896307 79.9157999,43.621928 79.2375226,43.8513424 C78.8961544,43.9638199 75.2614999,45.8580992 71.4682999,47.8509821 C67.1137499,50.1386848 62.5530908,52.5581893 62.5530908,52.5581893 C56.7483453,54.7383695 57.7164635,89.5652614 55.7802271,92.7086848 C53.8439908,95.8521082 55.7802271,106.731207 55.7802271,106.731207 L53.6051817,117.130171 C53.6051817,117.130171 46.3477784,125.115567 53.6046862,132.852739 Z" id="ae3770ab-4aa4-41b9-9f4d-4c69df699916" fill="#F0F0F0"></path>
                <path d="M77.0421833,56.0747159 C77.0421833,56.0747159 83.8135606,76.3900312 82.3623742,90.1757069 C80.9111879,103.961383 65.1923969,143.383004 65.1923969,143.383004 L59.8746833,146.285121 L59.8746833,153.056563 L56.1325151,142.919716 L66.423106,121.401337 C66.423106,121.401337 53.5823957,47.1265677 77.0421833,56.0747159 Z" id="b41fb511-fd5e-48e5-b733-0d9230f6b6d5" fill="#000000" opacity="0.1"></path>
                <path d="M70.691442,49.9791402 C77.7075738,46.1103114 88.3489465,56.271933 99.4723965,67.1515276 C103.467247,71.0575186 105.777551,70.6645906 107.102397,68.5547708 C104.609269,53.3891402 79.9168056,43.6214375 79.2385284,43.8508519 C78.8971602,43.9633294 75.2625056,45.8576087 71.4693056,47.8504915 L70.691442,49.9791402 Z" id="efbdbf49-3b58-4bc5-8391-5fbab31acdf7" fill="#000000" opacity="0.1"></path>
                <path d="M70.6948904,48.1096307 L73.5967676,40.1286848 C73.5967676,40.1286848 93.4268404,30.6964325 106.485536,40.1286848 L108.662068,53.6720632 C108.662068,53.6720632 110.59434,76.1640902 99.4723767,65.2810271 C88.3504131,54.3979641 77.7070684,44.2398109 70.6948904,48.1096307 Z" id="a2828270-d54b-4ede-bb2b-8639f55947f0" fill="#F0F0F0"></path>
                <path d="M76.3356602,52.8004816 C76.3356602,52.8004816 83.1070374,73.1157969 81.6558511,86.9014726 C80.2046647,100.687148 64.4858738,140.10877 64.4858738,140.10877 L59.1656829,143.012869 L59.1656829,149.784806 L48.0417374,146.640887 L50.4600511,138.659941 C50.4600511,138.659941 46.5905511,133.822914 49.251142,132.371608 C51.9117329,130.920301 51.4276738,122.939356 51.4276738,122.939356 C51.4276738,122.939356 52.8778643,43.851833 76.3356602,52.8004816 Z" id="f68da632-d878-40c3-a103-67cfc5c970db" fill="#F0F0F0"></path>
                <path d="M80.8591651,28.9250361 C80.6302651,27.840892 80.6609833,26.6744956 80.1417469,25.695892 C79.3623969,24.2287298 77.5713288,23.6148109 75.9160151,23.4701262 C73.8029015,23.2862974 71.6739333,23.6519731 69.5578469,23.5072884 C67.4417606,23.3626037 65.1814969,22.555937 64.1281606,20.7151713 C63.7080151,19.9808469 63.5009151,19.1162073 62.9435288,18.4794956 C61.7836697,17.1545406 59.6695651,17.3596758 58.002856,17.9275136 C56.3361469,18.4953515 54.5975969,19.3248109 52.8937288,18.8808469 C51.4608742,14.8717929 53.2251879,10.2473334 56.2766924,7.27881992 C59.3281969,4.31030641 63.4434424,2.71282893 67.5309424,1.52215326 C72.9219833,-0.0485674656 78.9888242,-0.976630529 83.9453515,1.66188298 C91.1329106,5.48760371 93.6691424,15.6140451 93.0062242,23.1614325 C92.7555242,26.0144956 92.3457833,29.2451262 90.0394424,31.1711172 C86.6594366,33.9944456 81.8797965,33.7521483 80.8591651,28.9250361 Z" id="f57115f6-7f5b-4177-880b-f5eff1305e5b" fill="#2F2E41"></path>
            </g>
        </g>
    </g>
</svg>